<svg width="160" height="66" viewBox="0 0 160 66" fill="none" xmlns="http://www.w3.org/2000/svg">
<path d="M14.4041 56.2778L10.7193 58.4004C8.05827 59.9332 9.1458 64 12.2167 64H154.998C156.655 64 157.998 62.6569 157.998 61V23.6484C157.998 22.8874 157.709 22.1549 157.189 21.5991L147.187 10.9054C145.629 9.24011 142.857 9.85267 142.145 12.0192L130.161 48.5327C129.742 49.8092 128.526 50.6515 127.183 50.5945L116.657 50.1471C115.726 50.1075 114.866 49.6372 114.33 48.8744L104.509 34.8955C103.546 33.5248 101.647 33.2083 100.292 34.1926L89.9792 41.6807C88.329 42.8789 85.99 42.1169 85.3622 40.1767L75.4864 9.65614C74.5663 6.81258 70.5082 6.91622 69.7344 9.80305L59.0687 49.5963C58.5682 51.4635 56.4583 52.3769 54.7543 51.4641L44.5297 45.9866C44.0626 45.7363 43.67 45.3668 43.3921 44.9155L32.5788 27.3605C31.3034 25.2899 28.2235 25.5177 27.2665 27.7534L15.6647 54.8588C15.4092 55.4558 14.9668 55.9537 14.4041 56.2778Z" fill="url(#paint0_linear_59_719)"/>
<path d="M0.998291 64L14.4041 56.2778C14.9668 55.9537 15.4092 55.4558 15.6647 54.8588L27.2665 27.7534C28.2235 25.5177 31.3034 25.2899 32.5788 27.3605L43.3921 44.9155C43.67 45.3668 44.0626 45.7363 44.5297 45.9866L54.7543 51.4641C56.4583 52.3769 58.5682 51.4635 59.0687 49.5963L69.7344 9.80305C70.5082 6.91622 74.5663 6.81258 75.4864 9.65614L85.3622 40.1767C85.99 42.1169 88.329 42.8789 89.9792 41.6807L100.292 34.1926C101.647 33.2083 103.546 33.5248 104.509 34.8955L114.33 48.8744C114.866 49.6372 115.726 50.1075 116.657 50.1471L127.183 50.5945C128.526 50.6515 129.742 49.8092 130.161 48.5327L142.145 12.0192C142.857 9.85267 145.629 9.24011 147.187 10.9054L157.998 22.4641" stroke="#45B6A7" stroke-width="4"/>
<defs>
<linearGradient id="paint0_linear_59_719" x1="79.4983" y1="-53.8633" x2="79.4983" y2="64" gradientUnits="userSpaceOnUse">
<stop stop-color="#45B6A7"/>
<stop offset="1" stop-color="#45B6A7" stop-opacity="0"/>
</linearGradient>
</defs>
</svg>
