<svg width="161" height="64" viewBox="0 0 161 64" fill="none" xmlns="http://www.w3.org/2000/svg">
<path d="M15.1801 26.8051L2.28514 39.9903C1.73691 40.5508 1.42993 41.3038 1.42993 42.0878V61C1.42993 62.6569 2.77308 64 4.42993 64H155.43C157.087 64 158.43 62.6569 158.43 61V39.2231C158.43 35.999 154.039 35.0447 152.701 37.9779L146.033 52.5938C145.142 54.5458 142.55 54.9591 141.096 53.3809L133.558 45.1954C132.768 44.3378 131.553 44.0154 130.442 44.3689L118.25 48.2475C116.76 48.7215 115.156 47.9717 114.564 46.5246L103.258 18.8913C102.395 16.7803 99.5848 16.367 98.1499 18.1399L87.7505 30.9895C87.3084 31.5357 86.6887 31.9093 85.9993 32.0454L75.2102 34.1746C73.8055 34.4518 72.4007 33.6978 71.8554 32.3739L61.5254 7.29453C60.4749 4.74405 56.8289 4.84372 55.9193 7.44779L46.1096 35.5314C45.3169 37.801 42.3102 38.2628 40.8728 36.3359L31.2534 23.4406C30.4885 22.4153 29.1576 21.9877 27.9387 22.3757L16.4149 26.0441C15.9472 26.1929 15.5232 26.4543 15.1801 26.8051Z" fill="url(#paint0_linear_59_669)"/>
<path d="M1.42993 40.8647L15.1801 26.8051C15.5232 26.4543 15.9472 26.1929 16.4149 26.0441L27.9387 22.3757C29.1576 21.9877 30.4885 22.4153 31.2534 23.4406L40.8728 36.3359C42.3102 38.2628 45.3169 37.801 46.1096 35.5314L55.9193 7.44779C56.8289 4.84372 60.4749 4.74405 61.5254 7.29453L71.8554 32.3739C72.4007 33.6978 73.8055 34.4518 75.2102 34.1746L85.9993 32.0454C86.6887 31.9093 87.3084 31.5356 87.7505 30.9895L98.1499 18.1399C99.5848 16.367 102.395 16.7803 103.258 18.8913L114.564 46.5246C115.156 47.9717 116.76 48.7215 118.25 48.2475L130.442 44.3689C131.553 44.0154 132.768 44.3378 133.558 45.1954L141.096 53.3809C142.55 54.9591 145.142 54.5458 146.033 52.5938L158.43 25.4194" stroke="#83F840" stroke-width="4"/>
<defs>
<linearGradient id="paint0_linear_59_669" x1="79.9299" y1="-29.8947" x2="79.9299" y2="64" gradientUnits="userSpaceOnUse">
<stop stop-color="#A2FA5E"/>
<stop offset="1" stop-color="#C6FA5E" stop-opacity="0"/>
</linearGradient>
</defs>
</svg>
