<svg width="159" height="66" viewBox="0 0 159 66" fill="none" xmlns="http://www.w3.org/2000/svg">
<path d="M0.883545 48.3896L12.2711 56.69C13.6648 57.7059 15.6261 57.3402 16.5601 55.8904L27.8719 38.3318C28.7424 36.9807 30.523 36.5556 31.9099 37.3678L41.5083 42.9889C42.7739 43.7301 44.39 43.4474 45.329 42.3206L56.3843 29.0538C57.3068 27.9468 58.8861 27.652 60.1458 28.3518L69.5694 33.5866C71.0392 34.403 72.8929 33.8524 73.6785 32.3659L83.2558 14.245C84.4872 11.915 87.9093 12.1913 88.751 14.6887L100.485 49.5035C100.685 50.0971 101.066 50.6133 101.574 50.9795L111.83 58.3676C113.45 59.5343 115.736 58.8234 116.408 56.9439L129.073 21.5432C129.247 21.0572 129.543 20.6243 129.933 20.2864L143.323 8.68593C143.514 8.52023 143.725 8.37941 143.952 8.26679L157.884 1.34326" stroke="#64F7CB" stroke-width="3"/>
<path d="M12.2711 56.69L5.65064 51.8643C3.66808 50.4193 0.883545 51.8354 0.883545 54.2887V62.3433C0.883545 64.0001 2.22669 65.3433 3.88354 65.3433H154.884C156.54 65.3433 157.884 64.0001 157.884 62.3433V6.18422C157.884 3.95726 155.543 2.5066 153.548 3.49769L143.952 8.26679C143.725 8.37941 143.514 8.52024 143.323 8.68593L129.933 20.2864C129.543 20.6243 129.247 21.0573 129.073 21.5432L116.408 56.9439C115.736 58.8234 113.45 59.5343 111.83 58.3676L101.574 50.9795C101.066 50.6133 100.685 50.0971 100.485 49.5035L88.751 14.6887C87.9093 12.1913 84.4872 11.915 83.2558 14.245L73.6785 32.3659C72.8929 33.8524 71.0392 34.403 69.5694 33.5866L60.1458 28.3518C58.8861 27.652 57.3068 27.9468 56.3843 29.0538L45.329 42.3206C44.39 43.4474 42.7739 43.7301 41.5083 42.9889L31.9099 37.3678C30.523 36.5556 28.7424 36.9807 27.8719 38.3318L16.5601 55.8904C15.6261 57.3402 13.6648 57.7059 12.2711 56.69Z" fill="url(#paint0_linear_59_665)"/>
<defs>
<linearGradient id="paint0_linear_59_665" x1="79.3836" y1="-23.0778" x2="79.3836" y2="79.6591" gradientUnits="userSpaceOnUse">
<stop stop-color="#64F7AE"/>
<stop offset="1" stop-color="#64EBF7" stop-opacity="0"/>
</linearGradient>
</defs>
</svg>
